<mxfile host="app.diagrams.net" modified="2023-11-11T07:26:45.825Z" agent="Mozilla/5.0 (Windows NT 10.0; Win64; x64) AppleWebKit/537.36 (KHTML, like Gecko) Chrome/119.0.0.0 Safari/537.36" version="22.1.0" etag="vDY7sw0NdcIr3_a-KTae" type="github">
  <diagram name="Страница — 1" id="QB2vQS0mXTWpkcYcL5WH">
    <mxGraphModel>
      <root>
        <mxCell id="0" />
        <mxCell id="1" parent="0" />
      </root>
    </mxGraphModel>
  </diagram>
</mxfile>
